<?xml version="1.0" encoding="UTF-8" standalone="no"?>
<svg xmlns:ffdec="https://www.free-decompiler.com/flash" xmlns:xlink="http://www.w3.org/1999/xlink" ffdec:objectType="morphshape" height="115.3px" width="112.05px" xmlns="http://www.w3.org/2000/svg">
  <g transform="matrix(1.0, 0.0, 0.0, 1.0, 51.0, 51.2)">
    <path d="M61.05 -51.2 L-51.0 -51.2 -51.0 51.0 -20.3 51.0 -16.0 51.0 -16.0 10.6 -16.0 0.0 -12.5 0.0 Q-6.25 0.0 0.0 0.0 30.55 32.0 61.05 64.0 L61.05 49.9 61.05 -51.2" fill="#ff0000" fill-rule="evenodd" stroke="none">
      <animate attributeName="fill" dur="2s" repeatCount="indefinite" values="#ff0000;#ff0001"/>
      <animate attributeName="fill-opacity" dur="2s" repeatCount="indefinite" values="1.0;1.0"/>
      <animate attributeName="d" dur="2s" repeatCount="indefinite" values="M61.05 -51.2 L-51.0 -51.2 -51.0 51.0 -20.3 51.0 -16.0 51.0 -16.0 10.6 -16.0 0.0 -12.5 0.0 Q-6.25 0.0 0.0 0.0 30.55 32.0 61.05 64.0 L61.05 49.9 61.05 -51.2;M61.05 -51.2 L-51.0 -51.2 -51.0 51.0 -16.0 51.0 -16.0 46.1 -16.0 0.0 -4.0 0.0 0.0 0.0 Q-5.0 6.65 -8.4 12.6 -36.8 62.2 45.7 64.05 L61.05 64.0 61.05 -51.2"/>
    </path>
    <path d="M61.05 -51.2 L61.05 49.9 61.05 64.0 Q30.55 32.0 0.0 0.0 -6.25 0.0 -12.5 0.0 L-16.0 0.0 -16.0 10.6 -16.0 51.0 -20.3 51.0 -51.0 51.0 -51.0 -51.2 61.05 -51.2 Z" fill="none" stroke="#000000" stroke-linecap="round" stroke-linejoin="round" stroke-opacity="0.0" stroke-width="0.0">
      <animate attributeName="stroke" dur="2s" repeatCount="indefinite" values="#000000;#000001"/>
      <animate attributeName="stroke-width" dur="2s" repeatCount="indefinite" values="0.0;0.0"/>
      <animate attributeName="fill-opacity" dur="2s" repeatCount="indefinite" values="0.0;0.0"/>
      <animate attributeName="d" dur="2s" repeatCount="indefinite" values="M61.05 -51.2 L61.05 49.9 61.05 64.0 Q30.55 32.0 0.0 0.0 -6.25 0.0 -12.5 0.0 L-16.0 0.0 -16.0 10.6 -16.0 51.0 -20.3 51.0 -51.0 51.0 -51.0 -51.2 61.05 -51.2 Z;M61.05 -51.2 L61.05 64.0 45.7 64.05 Q-36.8 62.2 -8.4 12.6 -5.0 6.65 0.0 0.0 L-4.0 0.0 -16.0 0.0 -16.0 46.1 -16.0 51.0 -51.0 51.0 -51.0 -51.2 61.05 -51.2 Z"/>
    </path>
  </g>
</svg>
