<?xml version="1.0" encoding="UTF-8" standalone="no"?>
<svg xmlns:ffdec="https://www.free-decompiler.com/flash" xmlns:xlink="http://www.w3.org/1999/xlink" ffdec:objectType="shape" height="102.0px" width="136.0px" xmlns="http://www.w3.org/2000/svg">
  <g transform="matrix(1.0, 0.0, 0.0, 1.0, 0.0, 0.0)">
    <path d="M135.0 5.0 Q134.95 3.35 133.8 2.2 132.65 1.0 131.0 1.0 L5.0 1.0 Q3.3 1.0 2.15 2.2 1.0 3.35 1.0 5.0 L1.0 97.0 Q1.0 98.65 2.15 99.85 3.3 101.0 5.0 101.0 L131.0 101.0 Q132.65 101.0 133.8 99.85 134.95 98.65 135.0 97.0 L135.0 5.0 M136.0 5.0 L136.0 97.0 Q135.95 99.05 134.5 100.55 133.05 102.0 131.0 102.0 L5.0 102.0 Q2.9 102.0 1.45 100.55 0.0 99.05 0.0 97.0 L0.0 5.0 Q0.0 2.95 1.45 1.5 2.9 0.0 5.0 0.0 L131.0 0.0 Q133.05 0.0 134.5 1.5 135.95 2.95 136.0 5.0" fill="#000000" fill-opacity="0.19607843" fill-rule="evenodd" stroke="none"/>
    <path d="M135.0 5.0 L135.0 97.0 Q134.95 98.65 133.8 99.85 132.65 101.0 131.0 101.0 L5.0 101.0 Q3.3 101.0 2.15 99.85 1.0 98.65 1.0 97.0 L1.0 5.0 Q1.0 3.35 2.15 2.2 3.3 1.0 5.0 1.0 L131.0 1.0 Q132.65 1.0 133.8 2.2 134.95 3.35 135.0 5.0 M134.0 5.0 Q134.0 3.75 133.1 2.9 132.2 2.0 131.0 2.0 L5.0 2.0 Q3.75 2.0 2.85 2.9 1.95 3.75 2.0 5.0 L2.0 97.0 Q1.95 98.25 2.85 99.15 3.75 100.0 5.0 100.0 L131.0 100.0 Q132.2 100.0 133.1 99.15 134.0 98.25 134.0 97.0 L134.0 5.0" fill="#000000" fill-opacity="0.39607844" fill-rule="evenodd" stroke="none"/>
    <path d="M132.0 5.0 L131.7 4.3 Q131.4 4.0 131.0 4.0 L5.0 4.0 Q4.55 4.0 4.3 4.3 4.0 4.6 4.0 5.0 L4.0 97.0 Q4.0 97.4 4.3 97.7 4.55 98.0 5.0 98.0 L131.0 98.0 131.7 97.7 132.0 97.0 132.0 5.0 M133.0 5.0 L133.0 97.0 Q133.0 97.85 132.4 98.45 131.8 99.0 131.0 99.0 L5.0 99.0 Q4.15 99.0 3.55 98.45 2.95 97.85 3.0 97.0 L3.0 5.0 Q2.95 4.15 3.55 3.6 4.15 3.0 5.0 3.0 L131.0 3.0 Q131.8 3.0 132.4 3.6 133.0 4.15 133.0 5.0" fill="#000000" fill-opacity="0.79607844" fill-rule="evenodd" stroke="none"/>
    <path d="M132.0 5.0 L132.0 97.0 131.7 97.7 131.0 98.0 5.0 98.0 Q4.55 98.0 4.3 97.7 4.0 97.4 4.0 97.0 L4.0 5.0 Q4.0 4.6 4.3 4.3 4.55 4.0 5.0 4.0 L131.0 4.0 Q131.4 4.0 131.7 4.3 L132.0 5.0" fill="#000000" fill-rule="evenodd" stroke="none"/>
    <path d="M133.0 5.0 Q133.0 4.15 132.4 3.6 131.8 3.0 131.0 3.0 L5.0 3.0 Q4.15 3.0 3.55 3.6 2.95 4.15 3.0 5.0 L3.0 97.0 Q2.95 97.85 3.55 98.45 4.15 99.0 5.0 99.0 L131.0 99.0 Q131.8 99.0 132.4 98.45 133.0 97.85 133.0 97.0 L133.0 5.0 M134.0 5.0 L134.0 97.0 Q134.0 98.25 133.1 99.15 132.2 100.0 131.0 100.0 L5.0 100.0 Q3.75 100.0 2.85 99.15 1.95 98.25 2.0 97.0 L2.0 5.0 Q1.95 3.75 2.85 2.9 3.75 2.0 5.0 2.0 L131.0 2.0 Q132.2 2.0 133.1 2.9 134.0 3.75 134.0 5.0" fill="#000000" fill-opacity="0.59607846" fill-rule="evenodd" stroke="none"/>
  </g>
</svg>
