<?xml version="1.0" encoding="UTF-8" standalone="no"?>
<svg xmlns:ffdec="https://www.free-decompiler.com/flash" xmlns:xlink="http://www.w3.org/1999/xlink" ffdec:objectType="shape" height="100.0px" width="100.0px" xmlns="http://www.w3.org/2000/svg">
  <g transform="matrix(1.0, 0.0, 0.0, 1.0, 50.0, 50.0)">
    <path d="M13.95 -48.5 Q19.5 -47.2 24.15 -44.75 33.95 -39.45 39.05 -32.45 45.45 -25.05 47.65 -16.15 50.0 -8.1 50.0 -0.1 L50.0 35.15 Q50.0 41.35 45.45 45.7 40.9 50.0 35.4 50.0 29.2 50.0 24.85 45.7 20.5 40.65 20.5 35.15 L20.5 -0.1 19.8 -5.8 Q19.35 -9.45 17.25 -12.6 15.1 -15.95 10.95 -18.25 6.7 -20.5 -0.1 -20.5 -7.1 -20.5 -11.45 -18.15 L-15.0 -15.8 -17.55 -12.75 Q-19.05 -10.9 -19.65 -9.35 -20.25 -7.7 -20.5 -5.8 L-20.5 35.15 Q-20.5 41.35 -25.05 45.7 -29.6 50.0 -35.1 50.0 -41.35 50.0 -45.65 45.7 -50.0 40.65 -50.0 35.15 L-50.0 -0.1 -48.9 -8.65 -47.3 -16.15 Q-44.25 -25.05 -38.75 -32.45 -32.15 -40.4 -22.95 -45.15 -18.85 -47.3 -13.9 -48.45 -7.6 -50.0 0.1 -50.0 7.6 -50.0 13.95 -48.5" fill="#000000" fill-rule="evenodd" stroke="none"/>
  </g>
</svg>
