<?xml version="1.0" encoding="UTF-8" standalone="no"?>
<svg xmlns:ffdec="https://www.free-decompiler.com/flash" xmlns:xlink="http://www.w3.org/1999/xlink" ffdec:objectType="shape" height="90.0px" width="120.0px" xmlns="http://www.w3.org/2000/svg">
  <g transform="matrix(1.0, 0.0, 0.0, 1.0, 0.0, 0.0)">
    <path d="M103.5 0.0 L120.0 0.0 120.0 60.0 103.5 60.0 103.5 0.0 M0.0 67.5 L0.0 60.0 17.25 60.0 17.25 67.5 0.0 67.5" fill="#0000ff" fill-rule="evenodd" stroke="none"/>
    <path d="M86.25 0.0 L103.5 0.0 103.5 60.0 86.25 60.0 86.25 0.0" fill="#ff0000" fill-rule="evenodd" stroke="none"/>
    <path d="M120.0 60.0 L120.0 67.5 103.5 67.5 103.5 60.0 120.0 60.0 M0.0 60.0 L0.0 0.0 17.25 0.0 17.25 60.0 0.0 60.0" fill="#cccccc" fill-rule="evenodd" stroke="none"/>
    <path d="M120.0 67.5 L120.0 90.0 103.5 90.0 103.5 67.5 97.5 67.5 97.5 90.0 91.5 90.0 91.5 67.5 86.25 67.5 86.25 60.0 103.5 60.0 103.5 67.5 120.0 67.5 M86.25 90.0 L63.0 90.0 63.0 67.5 51.75 67.5 51.75 60.0 69.0 60.0 69.0 67.5 86.25 67.5 86.25 90.0 M34.5 67.5 L21.0 67.5 17.25 67.5 17.25 60.0 34.5 60.0 34.5 67.5" fill="#131313" fill-rule="evenodd" stroke="none"/>
    <path d="M91.5 90.0 L86.25 90.0 86.25 67.5 91.5 67.5 91.5 90.0" fill="#000000" fill-rule="evenodd" stroke="none"/>
    <path d="M34.5 0.0 L51.75 0.0 51.75 60.0 34.5 60.0 34.5 0.0 M86.25 60.0 L86.25 67.5 69.0 67.5 69.0 60.0 86.25 60.0" fill="#00ffff" fill-rule="evenodd" stroke="none"/>
    <path d="M103.5 90.0 L97.5 90.0 97.5 67.5 103.5 67.5 103.5 90.0" fill="#262626" fill-rule="evenodd" stroke="none"/>
    <path d="M69.0 0.0 L86.25 0.0 86.25 60.0 69.0 60.0 69.0 0.0 M34.5 67.5 L34.5 60.0 51.75 60.0 51.75 67.5 42.0 67.5 34.5 67.5" fill="#ff00ff" fill-rule="evenodd" stroke="none"/>
    <path d="M51.75 0.0 L69.0 0.0 69.0 60.0 51.75 60.0 51.75 0.0" fill="#00ff00" fill-rule="evenodd" stroke="none"/>
    <path d="M17.25 0.0 L34.5 0.0 34.5 60.0 17.25 60.0 17.25 0.0" fill="#ffff00" fill-rule="evenodd" stroke="none"/>
    <path d="M42.0 90.0 L21.0 90.0 21.0 67.5 34.5 67.5 42.0 67.5 42.0 90.0" fill="#ffffff" fill-rule="evenodd" stroke="none"/>
    <path d="M21.0 90.0 L0.0 90.0 0.0 67.5 17.25 67.5 21.0 67.5 21.0 90.0" fill="#083e59" fill-rule="evenodd" stroke="none"/>
    <path d="M63.0 90.0 L42.0 90.0 42.0 67.5 51.75 67.5 63.0 67.5 63.0 90.0" fill="#3a007e" fill-rule="evenodd" stroke="none"/>
  </g>
</svg>
