<?xml version="1.0" encoding="UTF-8" standalone="no"?>
<svg xmlns:ffdec="https://www.free-decompiler.com/flash" xmlns:xlink="http://www.w3.org/1999/xlink" ffdec:objectType="shape" height="100.25px" width="99.85px" xmlns="http://www.w3.org/2000/svg">
  <g transform="matrix(1.0, 0.0, 0.0, 1.0, 49.9, 50.1)">
    <path d="M21.9 -41.9 Q25.15 -47.9 29.3 -49.05 L35.75 -50.1 Q38.9 -50.1 41.45 -48.7 47.35 -45.55 49.25 -40.0 49.9 -37.35 49.95 -35.0 49.9 -31.85 48.55 -28.95 L13.25 41.75 Q8.0 50.15 -0.2 50.15 -8.65 50.15 -13.45 41.75 L-48.7 -28.75 Q-49.9 -32.3 -49.9 -35.0 L-49.4 -39.8 Q-47.25 -46.0 -41.9 -48.45 -39.35 -50.1 -36.2 -50.1 -33.35 -50.1 -31.15 -49.15 -24.95 -46.9 -22.0 -41.65 L-0.2 2.15 21.9 -41.9" fill="#000000" fill-rule="evenodd" stroke="none"/>
  </g>
</svg>
